<svg xmlns="http://www.w3.org/2000/svg" viewBox="0 0 337.32 74.84"><title>Asset 9</title><g id="Layer_2" data-name="Layer 2"><g id="Layer_1-2" data-name="Layer 1"><path d="M26.91,44.35a2.06,2.06,0,0,0-2.18,2,6.13,6.13,0,0,1-7.9,5.54h0a2.07,2.07,0,0,0-2.56,1.41,2.22,2.22,0,0,0,1.42,2.58,10.24,10.24,0,0,0,8.88-1.44c2.59-1.83,3.33-3.47,3.51-6.64C28.09,46.62,28.05,44.42,26.91,44.35Z"/><path d="M26.22,19.82H20.15a2.3,2.3,0,0,1-2.3-2.3v-.44a2.08,2.08,0,1,0-4.15,0v.43A6.47,6.47,0,0,0,20.17,24h6a2.3,2.3,0,0,1,2.3,2.3c0,1.15,1.37.48,2.52.48s1.63.67,1.63-.48A6.43,6.43,0,0,0,26.22,19.82Z"/><path d="M61.13,17.51v-.43a2.08,2.08,0,1,0-4.15,0v.43a2.3,2.3,0,0,1-2.3,2.29H48.61a6.49,6.49,0,0,0-6.47,6.47c0,1.15,1.75-.52,2.9-.52s1.26,1.67,1.26.52A2.3,2.3,0,0,1,48.6,24h6.07A6.46,6.46,0,0,0,61.13,17.51Z"/><path d="M53.38,36.89a2.07,2.07,0,0,0-2.19,3.52A6.16,6.16,0,0,1,52.25,50l0,0a2,2,0,0,0,0,2.91,2.19,2.19,0,0,0,2.94,0,10.28,10.28,0,0,0-1.8-16.07Z"/><path d="M74.83,37.41a12.22,12.22,0,0,0-7.16-11.08,12.07,12.07,0,0,0,0-13.92,12.82,12.82,0,0,0-10.5-5.36,11.25,11.25,0,0,0-1.93.15A11.67,11.67,0,0,0,48.42.73a12,12,0,0,0-11,1.37C34.41,0,30.8-.61,26.41.73A11.59,11.59,0,0,0,19.59,7.2a13.7,13.7,0,0,0-1.93-.15,12.83,12.83,0,0,0-10.5,5.36,12.09,12.09,0,0,0,0,13.92A12.21,12.21,0,0,0,0,37.41,12.37,12.37,0,0,0,7.87,48.8,11.33,11.33,0,0,0,6.6,59.89a11.93,11.93,0,0,0,12.7,7,11.85,11.85,0,0,0,11.27,7.91,12,12,0,0,0,6.83-2.11,12.1,12.1,0,0,0,6.84,2.11c5,0,9.84-3.3,11.27-7.91a12.27,12.27,0,0,0,12.69-7A11.35,11.35,0,0,0,66.94,48.8,12.37,12.37,0,0,0,74.83,37.41ZM62.67,45.54c-2.16.18-2.66,2.47-1,3.8a7.28,7.28,0,0,1,2.76,8.9c-1.4,3.65-6.16,5.37-9.41,4.3L50.9,58.87a6.22,6.22,0,0,0-9.76,1.93,2.08,2.08,0,0,0,3.74,1.8A2.06,2.06,0,0,1,48.1,62l3.56,3.22a7.61,7.61,0,0,1-7.45,5.48,8,8,0,0,1-4.76-1.55V51.75H35.34V69.09a7.93,7.93,0,0,1-4.76,1.55,7.42,7.42,0,0,1-7.45-5.48L26.69,62a2,2,0,0,1,3.21.63,2.08,2.08,0,1,0,3.75-1.79,6.21,6.21,0,0,0-9.76-1.93l-4.08,3.66a7.72,7.72,0,0,1-9.41-4.3A7.28,7.28,0,0,1,13,49.44c3.8-1.06,5.7-3.13,6.11-6A6.77,6.77,0,0,0,16.38,37a2.08,2.08,0,0,0-2.46,3.35A2.59,2.59,0,0,1,15,42.81c-.11,1.42-1.4,2.18-3.23,2.64a8.31,8.31,0,0,1-7.63-8.09,8.13,8.13,0,0,1,5.2-7.49,6.91,6.91,0,0,0,13.32-2.58,2.08,2.08,0,0,0-4.16,0,2.76,2.76,0,0,1-5.51,0l-.79-1.65A7.87,7.87,0,0,1,10.5,14.77a8.65,8.65,0,0,1,7.1-3.6,9.72,9.72,0,0,1,1.42.12A6.91,6.91,0,0,0,32.63,9.63a2.08,2.08,0,0,0-4.16,0A2.75,2.75,0,0,1,23,10,7.46,7.46,0,0,1,27.78,4.6a8.14,8.14,0,0,1,7.5,1.08V22.75a16,16,0,0,1,4.17.4V5.71A8.15,8.15,0,0,1,47,4.63,7.48,7.48,0,0,1,51.75,10a2.75,2.75,0,0,1-5.48-.32,2.08,2.08,0,1,0-4.15,0,6.91,6.91,0,0,0,13.61,1.66,9.58,9.58,0,0,1,1.41-.12,8.64,8.64,0,0,1,7.1,3.6,7.85,7.85,0,0,1-.82,10.12,6.88,6.88,0,0,0-3.92.47,7.1,7.1,0,0,0-3.58,9.1,6.35,6.35,0,0,0,4.56,3.82,2.08,2.08,0,0,0,.76-4,2.75,2.75,0,0,1-.09-5.09A2.81,2.81,0,0,1,62.69,29a2.38,2.38,0,0,0,.83.36,8.12,8.12,0,0,1-.85,16.17Z"/><path d="M53.48,33.51,50.87,32q-.19-.52-.42-1l.79-2.9a1.79,1.79,0,0,0-.46-1.76l-2.44-2.47a1.8,1.8,0,0,0-1.77-.48l-2.9.78c-.34-.15-.68-.3-1-.43l-1.48-2.6a1.8,1.8,0,0,0-1.58-.92H36.11a1.67,1.67,0,0,0-1.59.91L33,23.7c-.36.13-.7.27-1,.43l-2.89-.79a1.84,1.84,0,0,0-1.76.46l-2.47,2.45A1.82,1.82,0,0,0,24.39,28l.78,2.9c-.16.34-.3.69-.43,1l-2.6,1.47A1.84,1.84,0,0,0,21.22,35v3.47a1.8,1.8,0,0,0,.91,1.59l2.6,1.5c.12.35.27.7.42,1l-.79,2.88a1.84,1.84,0,0,0,.46,1.77l2.45,2.46a1.84,1.84,0,0,0,1.76.48l2.9-.78c.34.16.68.3,1,.43l1.47,2.61a1.87,1.87,0,0,0,1.58.92h3.48a1.84,1.84,0,0,0,1.58-.91l1.5-2.61a10.11,10.11,0,0,0,1-.42l2.9.8a1.85,1.85,0,0,0,1.76-.47l2.46-2.44a1.82,1.82,0,0,0,.48-1.77l-.78-2.9c.15-.33.3-.68.43-1l2.6-1.47a1.86,1.86,0,0,0,.93-1.58V35.11A1.82,1.82,0,0,0,53.48,33.51Zm-2.74,4-1.78,1a1.82,1.82,0,0,0-1.32,1.24,10.16,10.16,0,0,1-.81,1.94,1.81,1.81,0,0,0,0,1.69l.57,2.1-1,1-2-.54h0a1.81,1.81,0,0,0-1.8,0,10.33,10.33,0,0,1-1.94.8,1.77,1.77,0,0,0-1.19,1.23l-1.08,1.86H37.09l-1-1.79s0,0,0,0a1.82,1.82,0,0,0-1.24-1.27,9.79,9.79,0,0,1-1.92-.8,1.82,1.82,0,0,0-1.71,0l-2.09.56-1-1,.54-2a1.82,1.82,0,0,0,.06-1.83A9.44,9.44,0,0,1,28,39.71a1.81,1.81,0,0,0-1.22-1.2l-1.88-1.08V36.07l1.77-1A1.81,1.81,0,0,0,28,33.81a9.27,9.27,0,0,1,.8-1.91,1.84,1.84,0,0,0,0-1.72l-.57-2.08,1-1,2,.54a1.83,1.83,0,0,0,1.81.05,10.61,10.61,0,0,1,1.94-.81,1.78,1.78,0,0,0,1.18-1.19l1.09-1.88h1.36l1,1.76a1.83,1.83,0,0,0,1.24,1.33,9.9,9.9,0,0,1,1.94.81,1.81,1.81,0,0,0,1.72,0l2.07-.55,1,1-.54,2a1.83,1.83,0,0,0,0,1.8,11,11,0,0,1,.8,2,1.8,1.8,0,0,0,1.21,1.17l1.88,1.08Z"/><path d="M37.79,29.83a7,7,0,0,0,0,13.92h0a7,7,0,0,0,7-7,6.95,6.95,0,0,0-7-7Zm0,10.28h0a3.32,3.32,0,0,1,0-6.64,3.32,3.32,0,0,1,0,6.64Z"/><path d="M88.84,18.54h14.67c3.62,0,6.46,1,8.27,2.8a7.27,7.27,0,0,1,2.16,5.37v.09a7.34,7.34,0,0,1-4.15,6.82c3.66,1.4,5.91,3.52,5.91,7.77v.09c0,5.78-4.69,8.67-11.82,8.67h-15ZM102,31.32c3.07,0,5-1,5-3.34v-.09c0-2.08-1.63-3.25-4.56-3.25H95.61v6.68Zm1.86,12.73c3.07,0,4.92-1.08,4.92-3.43v-.09c0-2.12-1.58-3.43-5.15-3.43h-8v6.95Z"/><path d="M120.71,26h6.86v4.87c1.4-3.34,3.66-5.51,7.73-5.32v7.17h-.37c-4.56,0-7.36,2.76-7.36,8.54v8.94h-6.86Z"/><path d="M137,43.19V43.1c0-5.28,4-7.72,9.75-7.72a17.16,17.16,0,0,1,5.92,1V36c0-2.84-1.77-4.42-5.2-4.42a17.83,17.83,0,0,0-6.68,1.3l-1.71-5.23a21.25,21.25,0,0,1,9.39-1.94c3.75,0,6.45,1,8.17,2.7s2.62,4.47,2.62,7.73v14h-6.64V47.53a9.3,9.3,0,0,1-7.31,3.07C140.76,50.6,137,48,137,43.19Zm15.76-1.58V40.4a10.53,10.53,0,0,0-4.38-.91c-2.94,0-4.74,1.18-4.74,3.34v.09c0,1.85,1.53,2.94,3.74,2.94C150.6,45.86,152.77,44.1,152.77,41.61Z"/><path d="M165.31,17.19h7.23v6.09h-7.23Zm.18,8.76h6.87v24.2h-6.87Z"/><path d="M178.81,26h6.87v3.43c1.58-2,3.61-3.88,7.08-3.88,5.2,0,8.22,3.43,8.22,9V50.15h-6.86V36.65c0-3.25-1.54-4.92-4.15-4.92s-4.29,1.67-4.29,4.92v13.5h-6.87Z"/><path d="M204.27,26h7l3.88,14.67,4.56-14.76h5.91l4.61,14.81,4-14.72H241l-7.54,24.38h-6.19L222.6,35.47l-4.74,14.86h-6.14Z"/><path d="M242.83,38.18v-.09c0-7,5.6-12.59,13.14-12.59s13,5.55,13,12.5v.09c0,7-5.59,12.6-13.13,12.6S242.83,45.14,242.83,38.18Zm19.41,0v-.09a6.43,6.43,0,0,0-6.36-6.68c-3.93,0-6.28,3-6.28,6.59v.09A6.42,6.42,0,0,0,256,44.77C259.89,44.77,262.24,41.75,262.24,38.18Z"/><path d="M274,26h6.86v4.87c1.4-3.34,3.66-5.51,7.72-5.32v7.17h-.36c-4.56,0-7.36,2.76-7.36,8.54v8.94H274Z"/><path d="M292.85,17.19h6.86V34.75l8-8.8H316l-9.21,9.52,9.53,14.68h-7.86l-6.32-9.89-2.39,2.53v7.36h-6.86Z"/><path d="M317.68,46.94l2.93-4.51a13.73,13.73,0,0,0,7.63,2.89c2,0,2.89-.73,2.89-1.81v-.09c0-1.49-2.35-2-5-2.8-3.39-1-7.22-2.57-7.22-7.27v-.09c0-4.92,4-7.67,8.84-7.67a16.72,16.72,0,0,1,9,2.79l-2.61,4.75a14.38,14.38,0,0,0-6.55-2.26c-1.67,0-2.53.72-2.53,1.67v.09c0,1.35,2.3,2,4.92,2.89,3.39,1.13,7.32,2.75,7.32,7.18v.09c0,5.37-4,7.81-9.26,7.81A16.91,16.91,0,0,1,317.68,46.94Z"/></g></g></svg>